# xmcd
#
# Track frame offsets: 
#        187
#        18600
#        33005
#        42832
#        54995
#        71235
#        84142
#        97505
#        113000
#        127775
#
# Disc length: 1938 seconds
#
# Revision: 4
# Processed by: cddbd v1.5.2PL0 Copyright (c) Steve Scherf et al.
# Submitted via: ExactAudioCopy v1.0b2
#
DISCID=6807900a
DTITLE=Various Artist - Country Classics - Volume 9
DYEAR=1988
DGENRE=Country
TTITLE0=Bellamy Brothers - Old Hippie
TTITLE1=Moe Bandy - Till I'm Too Old To Die Young
TTITLE2=Whites - Pins And Neeles
TTITLE3=Gene Watson - Got No Reason Now For Goin' Home
TTITLE4=Billy Burnette - Try Me
TTITLE5=Lyle Lovett - Cowboy Man
TTITLE6=Ronnie McDowell - All Tied Up
TTITLE7=Kendalls - Too Late
TTITLE8=Desert Rose Band F Chriss Hillman, John Jorgenson and Herb Peder
TTITLE8=son - Ashes Of Love
TTITLE9=Tommy Roe - Some Such Foolishness
EXTD=more info
EXTT0=
EXTT1=
EXTT2=
EXTT3=
EXTT4=
EXTT5=
EXTT6=
EXTT7=
EXTT8=
EXTT9=
PLAYORDER=
